<svg id="Layer_1" data-name="Layer 1" xmlns="http://www.w3.org/2000/svg" viewBox="0 0 1412.33 320.74"><defs><style>.cls-1{opacity:0.75;}.cls-2{fill:#f07c29;stroke:#000;stroke-miterlimit:10;stroke-width:2px;}</style></defs><g class="cls-1"><path class="cls-2" d="M133.53,498.77c0,6.07-1.54,10.4-4.93,13.54-2.06,3-5.47,4.58-10.66,5-2.94-.14-6.29-1.58-10.49-4.48-1.2-3.09-2.62-6.88-4.44-11.84,1.38-8.8,4.92-16.94,11-25.4a77.79,77.79,0,0,1,29.43-11.66c12.4,1.43,22.54,5.08,31.66,11.42,6.8,9.07,11,19.32,13.07,32A84.41,84.41,0,0,1,178,540.91c-8.2,7.77-16.15,12.39-24.8,14.44a37.51,37.51,0,0,0-11-3.47c-3.87-4-7.3-5.13-10.69-3.55-3.16-1.37-6.62,1.21-10.8,8.06,1-1.81-.63-2.74-1.67-1,2.61-6.06,6-10.19,10.58-12.9,5.88-5.23,9.35-8.78,10.84-11.06a25.31,25.31,0,0,0,2.39-12.85,63.62,63.62,0,0,0-1-10.75c-.42-4.26-.74-7.42-1-9.87a34.87,34.87,0,0,1,2.77-13.81,58.85,58.85,0,0,1,10-8.71c-.32,1.36.58,2.84.93,1.54-4.92,4.77-7.11,9.46-6.84,14.62a47.47,47.47,0,0,0,1.54,10.67c.82,5.18,1.35,9,1.64,11.83a32.24,32.24,0,0,1-3.87,15.2c-2.7,3.5-7.46,8-14.86,13.93.52-1.29,3.73-1.53,3.33-.24,5.38-1.45,9.76-.43,13.69,3.18a74.21,74.21,0,0,1,11.16,3.19c5-1.71,9.88-5.12,15.33-10.66a98.15,98.15,0,0,0,6.19-25.32c-1.82-12.66-6.1-23.06-13.36-32.48a57.39,57.39,0,0,0-30.33-12.34,75.39,75.39,0,0,0-22.25,8.66,51.68,51.68,0,0,0-8.32,19.55c1.62,4.5,2.81,7.7,3.73,10,3.61,2.56,6.4,3.72,8.72,3.62,6.68-.19,10.43-4,11.7-12C132.29,498.89,134,499.22,133.53,498.77Z" transform="translate(-101.99 -236.17)"/><path class="cls-2" d="M272.06,484.32c-6.24,7.4-11.24,11.13-15.61,11.63a17.36,17.36,0,0,1-4-1.63,9.87,9.87,0,0,1-1.09-6.32c-2.92,2.8-5.21,4.83-7.14,6.36-1.76.32-3.84.74-6.49,1.32a23.28,23.28,0,0,1-8.24-3.89,42,42,0,0,1-2.78-9.78c.77-.12.87-2.94.09-2.94.27.6-.89,2.13-3.64,4.8.92-.19-1.19-1.77-2.19-1.64a175.59,175.59,0,0,1,13.13-14.15c4.85-2.81,8.63-4.38,11.8-4.9,2.29.69,4.52,1.45,6.95,2.34-.25.53,5.61-2.23,6.1-2.87-.49.64-1.22,22.92-.76,23.19-.54,2.09-.48,3.51.2,4.44-.27.05.31.31,1.81.81.29-.44,1.56-1.14,4-2.19a26.11,26.11,0,0,1,5.87-6.43C269.15,482.34,271.06,484.11,272.06,484.32Zm-20.57-1.48c-.33-.19.11-13.36.45-13.71a17,17,0,0,0-6.48-3,14.16,14.16,0,0,0-7.52,3.58,19.39,19.39,0,0,0-3.6,9.37,18.43,18.43,0,0,0,2.08,7.68,14,14,0,0,0,6.28,2.9,13.81,13.81,0,0,0,6-2.91C250.24,484.46,251.15,483.21,251.49,482.84Z" transform="translate(-101.99 -236.17)"/><path class="cls-2" d="M336.8,407.43c.43.13,1.58-.17,3.57-.92a31,31,0,0,1,10.46,5.77,50.08,50.08,0,0,1,3.06,12.93c-1.3,4-2.43,7.75-3.56,11.71-2.76,3.38-6.4,8.16-11.36,14.94-.38-.88-1.82-1.73-1.5-.88.09-2,.33-2.93.74-3a36.14,36.14,0,0,0-.77-6,39,39,0,0,0-2.95-6c-.2-.27-3-4.77-2.88-4.69-3.69,8.65-8.1,14.65-13.78,18.73.45-.81-1-1.66-1.5-.88.93-2.54,1.17-3.77.74-3.85.59-1.8.33-3.84-.82-6.38a17.87,17.87,0,0,0-2.77-9.06c-2.35,3.93-4.37,6.5-6.31,8,.87-.33-1-2.4-1.93-2.15,6.27-6.5,10.09-12.55,11.95-18.89.48.49,1.79,1.13,1.36.67a39.72,39.72,0,0,0,2.21,11,20.21,20.21,0,0,1,2,12.14c.26-.44.17.54-.09,1,.26-.48.66-.45.41,0a71.39,71.39,0,0,0,10.55-24.08c-.16.46,1.44.59,1.67.14A13.63,13.63,0,0,0,338.8,429a27.45,27.45,0,0,1,4.65,14.31c3.86-6.66,6.29-12.3,7.59-17.63-.22-7.08-2.84-10.95-8.2-12.08-2.44.45-3.82.42-4.3-.1A6.51,6.51,0,0,1,336.8,407.43ZM361.36,441c-5.71,7.43-11.95,11.08-19.48,11.38.38-.26.09-1.54-.3-1.32a24.78,24.78,0,0,0,8.66-3.12c2.4-1.62,5.35-4.42,9.22-8.75C359.15,439.43,361,441.17,361.36,441Z" transform="translate(-101.99 -236.17)"/><path class="cls-2" d="M446.47,402.63c-7.31,6.63-12.86,9.76-17.33,9.77a15.53,15.53,0,0,1-3.49-2.12c-.82-1.75-.9-4.14-.24-7.44-.13-.33,2-15.19,2.23-15.47.11-2-.44-3.26-1.71-3.9a6.24,6.24,0,0,1-2.38.48,13.33,13.33,0,0,1-2.88,2,44.3,44.3,0,0,1-4.58,4.72,25.17,25.17,0,0,1-3,3.73c.35,0-1.33,11.68-1.75,12.15.42-.47-6.67,2.75-7.38,3.35.71-.6,3.85-22.41,3.27-22.69-1.25,3.51-3.78,6.68-7.9,9.89.89-.1-.89-2-1.85-2,6.21-5.54,9.76-10.68,11.06-16,.53.6,7.33-1.53,7.08-2.22.25.69-1.49,12.76-1.81,12.56,4.14-3.93,7.13-6.64,9.35-8.44a31.43,31.43,0,0,1,6.5-1.55,35.74,35.74,0,0,1,4.1,2.66,51.47,51.47,0,0,1,.11,10.22c-.47.08-1.72,8.78-1.3,9.05a7.42,7.42,0,0,0-.42,5c-.33.42.14.93,1.46,1.59,1.66-.23,5.21-2.61,11.07-7.44C443.74,400.33,445.51,402.31,446.47,402.63Z" transform="translate(-101.99 -236.17)"/><path class="cls-2" d="M528.8,370.4c-4.88,4.44-9.09,7.16-13.14,8.47a56,56,0,0,1,0,13.43,49.69,49.69,0,0,1-9.75,18.14,30.39,30.39,0,0,1-16.26,5.33,25.56,25.56,0,0,0-7.71-4.56,54.82,54.82,0,0,0-2.8-7.81c3.08-2,5.69-2.94,8.16-2.8.66-.85,1.26.15.63,1a19,19,0,0,1-1.29,3.57,29.18,29.18,0,0,1,.93,5.2,6.35,6.35,0,0,1,4.27,2.82,27.83,27.83,0,0,0,10-4,32.8,32.8,0,0,0,6.81-28.68,25.07,25.07,0,0,0-6.47-11.06c-2.91,2.74-5.49,3.7-8.08,3-1.88-.21-2.84-1.31-3-3.46a15.1,15.1,0,0,1,3.68-3.54c2.4-.15,4.8-.2,7.51-.18.07.54.59.65.54.11a64.94,64.94,0,0,0,13.59-12.76,8.91,8.91,0,0,1-9.23.14,6.75,6.75,0,0,1-7-2.89,40.5,40.5,0,0,1-12.54,13.48c.65.61-1-1.39-1.72-2.09,4.37-2.8,9.52-8.86,16.11-18.94,3.91,4.94,7.33,7,10.67,6.42,2.91,1.85,6.23,1.21,10.36-2-.75,1.26.63,2.75,1.43,1.54a109.3,109.3,0,0,1-19.23,18.57,26,26,0,0,1,9.44,9.38c3.53-1.09,7.45-3.62,12.25-7.88C526.16,368.79,527.83,370.73,528.8,370.4ZM500.08,368a7.57,7.57,0,0,1-1.67-.34,8.06,8.06,0,0,0-2.56.25,2.69,2.69,0,0,0-1.78,1.58c0,.55.32.9,1,1.1a5.17,5.17,0,0,0,2.56-.45A6.85,6.85,0,0,0,500.08,368Z" transform="translate(-101.99 -236.17)"/><path class="cls-2" d="M728.16,257c-5.79,4.61-9,8.93-9.89,13.49-1.95,3.51-3,8-3.42,13.92a82.52,82.52,0,0,0-3.45,14.21,48.37,48.37,0,0,1-15.86,19.61A40.51,40.51,0,0,1,673,320.36c-4-2.95-7.42-5.77-10.85-8.81a85.72,85.72,0,0,1-1.51-14.45,23.2,23.2,0,0,1,9.45.12c.94-.34.88.61-.07,1-.53.91-1.58,2.43-3.29,4.76.1,2.16.34,4.93.74,8.67,2.49,1.94,4.86,3.95,7.4,6.27a30.24,30.24,0,0,0,15.61-2,40.14,40.14,0,0,0,11.8-16.07,71.85,71.85,0,0,1,3.1-10.7,35,35,0,0,1,3-10.57c3.25-10.27,9.36-17.62,19.08-23C726.19,256.87,726.83,258.21,728.16,257Zm.74,29.15c8.55,6.8,11.32,15.68,8.64,27.72a143.17,143.17,0,0,1-12.2,16.33,55.14,55.14,0,0,1-16,3c-5.48-3.73-8.47-7.42-9.33-11.52,1.27-1.83,3.71-2.28,7.6-1.42.14-.86.24-.49.32,1.14-.62,3.13,1,6,4.92,9.07,2.67-.66,5.69-1.27,9.42-1.9,2.42-3.9,4.84-7.49,7.54-11.2,1.34-7.59,1.42-13.36.26-18-3.07-5.64-7-9.24-12.27-11.24-.47-.05-.32-1.25.16-1.25,3.49-.11,7.11-1.44,11.32-4.14a50.17,50.17,0,0,0,7.15-9.62c.69-4.77.26-10-1.34-16.42a95.27,95.27,0,0,0-13.49-11.41,71.13,71.13,0,0,0-28.35,1.16c-8.87,5.49-15,11.47-19.11,18.68-.14,4.72-.37,8.16-.71,10.72,2.19,3.43,4.05,5.43,5.81,6.25,4.33,1.36,8.23.13,12.17-3.84.56.34,1.59,1.54,1.07,1.25a14,14,0,0,1-9,6.72c-2.31,1.11-5.4,1.12-9.65,0-2-1.13-4.18-3.31-6.82-6.78a69.67,69.67,0,0,0,.45-11.07A196.5,196.5,0,0,1,681,250.58c7.35-3.59,14.63-6.85,22.72-10.18,8.26.31,16.05.88,24.33,1.78a177.6,177.6,0,0,1,14.75,11.54,53.06,53.06,0,0,1,1,16.92C739.93,277.86,735.17,282.82,728.9,286.12Z" transform="translate(-101.99 -236.17)"/><path class="cls-2" d="M786.39,287c9.38-4.67,15.83-7.43,20.12-8.6a43,43,0,0,1,12.32,1.72,31.86,31.86,0,0,1,7.08,6.82,27.11,27.11,0,0,1-.68,9.36,29.12,29.12,0,0,1-12,10.46,27,27,0,0,1-16.33-.41,24.2,24.2,0,0,1-6.58-6.76,23.59,23.59,0,0,1,.6-9,9.42,9.42,0,0,0,2.47-4.27c-.4.66-2.22,1.69-5.66,3.21C788.43,289.59,787.17,287.19,786.39,287Zm16.37,17.18a15,15,0,0,0,9.07.13,23.61,23.61,0,0,0,7-7.7,19.2,19.2,0,0,0,1-8.85,17,17,0,0,0-5.56-6,14.71,14.71,0,0,0-8.73-.13,23.57,23.57,0,0,0-7,7.87C795.84,296.26,797.18,301,802.76,304.13ZM828.34,307c-5.75,3.06-10.14,4.62-13.7,4.89a39.28,39.28,0,0,1-10.06-1.39c.47-.09.64-1.68.18-1.65,7.67,1.59,14.8.21,22.24-4.29C826.59,304.69,827.88,307,828.34,307Z" transform="translate(-101.99 -236.17)"/><path class="cls-2" d="M878.55,279.69c9.77-3.82,16.43-6,20.8-6.79a42.63,42.63,0,0,1,12.12,2.8,31.39,31.39,0,0,1,6.45,7.42,26.36,26.36,0,0,1-1.5,9.26,28.84,28.84,0,0,1-12.91,9.36,27,27,0,0,1-16.23-1.85,24.58,24.58,0,0,1-5.95-7.31,24.16,24.16,0,0,1,1.39-8.95,9.18,9.18,0,0,0,2.83-4c-.44.63-2.34,1.49-5.92,2.7C880.36,282.51,879.32,280,878.55,279.69Zm14.8,18.56a15,15,0,0,0,9,.92,23.45,23.45,0,0,0,7.68-7.05,19.28,19.28,0,0,0,1.78-8.72,17.07,17.07,0,0,0-5-6.44,14.77,14.77,0,0,0-8.68-.89,23.39,23.39,0,0,0-7.66,7.22C887.15,289.8,888.07,294.59,893.35,298.25Zm25.23,5.1c-6,2.55-10.51,3.72-14.08,3.66a38.1,38.1,0,0,1-9.89-2.27c.47,0,.78-1.6.32-1.63,7.5,2.27,14.72,1.53,22.53-2.31C917,300.91,918.11,303.36,918.58,303.35Z" transform="translate(-101.99 -236.17)"/><path class="cls-2" d="M1016.54,311.24c-9.54,2.24-16.41,2.38-21.45.42-1.93-3.12-3.37-5.4-4.49-7.12,0-4,0-9.13-.08-16,.58-.52-4.54.84-5.33,1.41.79-.57-4.45,6.62-5.45,7.49,1-.87-6.27-2-7.57-1.2,1.3-.82,15.46-20.27,14.74-20.25.72,0-13.33,4.91-14.62,5.14,1.29-.23.8-2.78-.52-2.66,13.2-4.71,19.31-7.24,19.08-7.89.56.19,18-23.82,18.19-25,3-3.11,7.13-5.81,13-8.43a88.29,88.29,0,0,1,13.61,2.23c2.8,4.32,3.35,7.77,1.69,10.77a47,47,0,0,1-13.65,10.65,129.8,129.8,0,0,1-25.53,11.3c.28.13-9.87,14.07-10.56,14.51,8.56-2.56,14.29-3.67,17.89-3.48a11.5,11.5,0,0,1,8.92,2.23c1.2.74,2.12,2.29,2.86,4.83-.19,1.38-.32,2.73-.41,4.22a61,61,0,0,1-6.67,1.05c.68-4.59.25-7.11-1.33-7.9-2.12-1.91-5.71-2-11.22-.45,0,5.78-.13,10.58-.26,15a21.61,21.61,0,0,0,3.86,7.85c2.24.17,6.91-.27,14.58-1.36C1015.42,307.31,1016.1,309.84,1016.54,311.24Zm-15.46-43a172.58,172.58,0,0,0,19.66-9.78,61.59,61.59,0,0,0,11.24-9.59c.39-1.15.9-2.58,1.59-4.45a24.92,24.92,0,0,1-1.79-3.62,12.38,12.38,0,0,0-7.48-.17,26.62,26.62,0,0,0-8,6.71C1016.3,247.62,1001.68,267.71,1001.08,268.24Z" transform="translate(-101.99 -236.17)"/><path class="cls-2" d="M1262,302.23c-4.89.75-8.12.31-10.09-1.35-5.12-1.09-7.91-2.94-8.71-5.8-3.25-1.79-5.4-5.63-6.72-12-3.24-4.35-4.9-7.62-5.2-10.23a37.55,37.55,0,0,1-8-3.72c-3.63,1.42-6.45,2.44-8.81,3.19-2.52,3.5-3.83,6-4.11,7.7-.18,3.93.24,6.84,1.31,9.08a71.72,71.72,0,0,0,6,13.81c2.58,6,4.62,10.93,6.37,15.27a49.74,49.74,0,0,1,.84,12.6c-1.23,3.25-3.59,7.05-7.34,11.88-6.2,3.84-13.64,6-23.23,6.78a72,72,0,0,1-23.72-12.59,131.34,131.34,0,0,1-9.45-21.76c1.67-7.62,3.9-13.38,7-18,5.23-2.64,9.28-3.93,12.64-4,5.77,1.08,9.81,3.33,12.59,7,4.39,4.53,6.34,9.11,6.08,14.3.69,4.69-.8,8.56-4.66,12.06-1.51,1.17-4,2-7.62,2.52a67.21,67.21,0,0,0-7.09-3.73,24.49,24.49,0,0,1-2-12.52c1.32-.18,3.09.45,1.84.66a16.33,16.33,0,0,1,1.76,6.07c2.58,1.17,4.32,2,5.42,2.64,3-.46,4.93-1.17,5.91-2.2,2.88-2.33,3.88-4.78,3.14-7.67.48-3.2-.69-6-3.65-8.71-1.83-2.79-5.06-4.3-10.1-4.74-2.73.3-6.19,1.59-10.79,4-2.42,3.68-4.32,8.42-5.93,14.8a163.36,163.36,0,0,0,7.55,17.72,73,73,0,0,0,18.49,9.95c7.67-.78,13.51-2.54,18.26-5.49,3.37-4.12,5.27-7.33,5.95-10a26.72,26.72,0,0,0-.95-10.75,117.19,117.19,0,0,0-5.75-13.76c-2.48-5.36-4.33-9.77-5.77-13.77a33.93,33.93,0,0,1-1-10.46c.86-2.3,2.67-5.34,5.66-9.5a48.75,48.75,0,0,1,16.12-4.71,101.53,101.53,0,0,1,15.52,8.1c.71,3.38,2.75,6.82,6.37,10.75,1,5.68,2.89,8.94,6,10.18.85,3.28,4.08,4.76,10.08,4.61C1260.15,300.8,1260,302.47,1262,302.23Z" transform="translate(-101.99 -236.17)"/><path class="cls-2" d="M1287.05,381.93c-9-.54-15.2-2.64-19.37-6.58a17.09,17.09,0,0,0-1.27-5.32c1.79-1.65,3.25-3,4.56-4.33,1-.24,14-9.08,13.59-9.2a106.06,106.06,0,0,1-16.18.17c1,.1,1.09-2.58,0-2.8a172.94,172.94,0,0,0,16.33-.59c3.73,0,5.54-.26,5.64-.72.19.27,22.4-14.77,23.12-15.65-.72.88,8.28,2.71,9.36,1.9-1.08.81-21.69,14.76-21.45,14.52-.24.24,18.48-.28,19.49-.53-1,.25-1.15,3.47-.15,3.34-1,.13-24.6.83-24.56.73,0,.1-16.74,11.41-17.39,11.77-1.89,1.35-3.51,2.61-5.06,3.92a7.85,7.85,0,0,1-.07,2.77c2.51,1.83,6.92,3.12,13.77,4C1287.75,378.57,1287.37,381.05,1287.05,381.93Z" transform="translate(-101.99 -236.17)"/><path class="cls-2" d="M1343.1,386.67c10.37,1.79,17.19,3.4,21.3,5a39.44,39.44,0,0,1,8.89,8.69,29.19,29.19,0,0,1,1.65,9.69,25.71,25.71,0,0,1-6.1,7.13,29.36,29.36,0,0,1-15.89,1.28,27.72,27.72,0,0,1-12.9-10,26.5,26.5,0,0,1-1.29-9.35,24.62,24.62,0,0,1,5.85-6.91,9.39,9.39,0,0,0,4.52-2c-.67.28-2.74,0-6.47-.78C1343.22,390,1343.63,387.31,1343.1,386.67Zm21.9,41c-6.46-1-10.92-2.31-13.93-4.19a40,40,0,0,1-7.27-7.09c.42.19,1.5-1,1.12-1.23,5.22,5.82,11.77,8.94,20.45,9.75C1365,424.8,1364.59,427.45,1365,427.7Zm-18.9-17.5a15,15,0,0,0,7.23,5.49,23.37,23.37,0,0,0,10.22-2,19.11,19.11,0,0,0,6.06-6.52,17.26,17.26,0,0,0-.92-8.11,14.93,14.93,0,0,0-7-5.28,23.82,23.82,0,0,0-10.3,2.18C1345.2,399.76,1343.5,404.33,1346.1,410.2Z" transform="translate(-101.99 -236.17)"/><path class="cls-2" d="M1433.66,471.72c-9.12-2.2-14.62-5.27-17.19-9.58-1.34-5,.35-8.48,5.28-10.87,4.78-1.69,10.39-1.6,17.5.27-.72-.52-1.34-1.78-1.94-3.92a6.77,6.77,0,0,1-.91-4.28,44.81,44.81,0,0,1-17.22-2.76c.54.56,1.26-1.95.76-2.61a65.77,65.77,0,0,0,23.77,2.16c-.62,5.2-.25,8.63,1.16,10.69.4,2.25,2,3.72,5,4.58-.66,0-1,1.31-.3,1.38a61.4,61.4,0,0,0-12.27-2.16,26.85,26.85,0,0,0-11.71,2.16,9,9,0,0,0-2.92,2.64,11.88,11.88,0,0,0-.49,3.33,35.25,35.25,0,0,0,3.88,3.79,57.17,57.17,0,0,1,8.37,2.66C1434.32,468.64,1433.63,471.06,1433.66,471.72Z" transform="translate(-101.99 -236.17)"/><path class="cls-2" d="M1498.33,526a86.83,86.83,0,0,1-11.75-5.48,50.67,50.67,0,0,1-6.66-11,24.53,24.53,0,0,1,.48-9.57,24.88,24.88,0,0,1,8.06-6.06,4.27,4.27,0,0,0,3.4-.8,16.52,16.52,0,0,1-6-2c.42.63,1.19-1.89.81-2.63,9.77,3.7,16.13,6.25,19.86,8a30.22,30.22,0,0,1,6.73,8.16c-.11,1.81-.16,3.38-.15,4.89a23,23,0,0,1-3.48,3c-5.93,1.53-12.79-1.53-21.4-9.55-2.27,2.42-2.91,5.58-2,9.88a49.69,49.69,0,0,0,4.39,6.08c2.4,1.49,5.16,3,8.61,4.73C1499.16,522.91,1498.26,525.26,1498.33,526Zm-8-25.1c5.93,5.9,10.78,8.16,15.15,7a19,19,0,0,0,2.84-2.09,16.55,16.55,0,0,0,.31-3.29,9.55,9.55,0,0,0-4.84-4.61,16.6,16.6,0,0,0-8.07.08c-1.37.67-2.58,1.24-3.8,1.79C1491.33,500.59,1490.82,500.93,1490.35,500.9Z" transform="translate(-101.99 -236.17)"/></g></svg>